<svg width="518" height="183" viewBox="0 0 518 183" fill="none" xmlns="http://www.w3.org/2000/svg">
<path d="M205.2 42.6H226.8V142.6H205.2V128.2C197.067 139.533 185.4 145.2 170.2 145.2C156.467 145.2 144.733 140.133 135 130C125.267 119.733 120.4 107.267 120.4 92.6C120.4 77.8 125.267 65.3333 135 55.2C144.733 45.0667 156.467 40 170.2 40C185.4 40 197.067 45.6 205.2 56.8V42.6ZM151 115.6C157 121.6 164.533 124.6 173.6 124.6C182.667 124.6 190.2 121.6 196.2 115.6C202.2 109.467 205.2 101.8 205.2 92.6C205.2 83.4 202.2 75.8 196.2 69.8C190.2 63.6667 182.667 60.6 173.6 60.6C164.533 60.6 157 63.6667 151 69.8C145 75.8 142 83.4 142 92.6C142 101.8 145 109.467 151 115.6Z" fill="url(#paint0_linear_2_18)"/>
<path d="M273.577 59.4C279.043 47 289.31 40.8 304.377 40.8V64.2C296.11 63.6667 288.91 65.6667 282.777 70.2C276.643 74.6 273.577 81.9333 273.577 92.2V142.6H251.977V42.6H273.577V59.4Z" fill="url(#paint1_linear_2_18)"/>
<path d="M378.675 63.4H353.875V111.4C353.875 115.533 354.808 118.533 356.675 120.4C358.542 122.133 361.275 123.133 364.875 123.4C368.608 123.533 373.208 123.467 378.675 123.2V142.6C362.142 144.6 350.275 143.2 343.075 138.4C335.875 133.467 332.275 124.467 332.275 111.4V63.4H313.875V42.6H332.275V21L353.875 14.6V42.6H378.675V63.4Z" fill="url(#paint2_linear_2_18)"/>
<path d="M418.666 23.6C415.999 26.2667 412.799 27.6 409.066 27.6C405.332 27.6 402.066 26.2667 399.266 23.6C396.599 20.8 395.266 17.5333 395.266 13.8C395.266 10.0667 396.599 6.86667 399.266 4.20001C401.932 1.4 405.199 0 409.066 0C412.932 0 416.199 1.4 418.866 4.20001C421.532 6.86667 422.866 10.0667 422.866 13.8C422.866 17.5333 421.466 20.8 418.666 23.6ZM398.266 142.6V42.6H419.866V142.6H398.266Z" fill="url(#paint3_linear_2_18)"/>
<path d="M463.759 70.2C463.759 73.5333 465.559 76.2 469.159 78.2C472.893 80.0667 477.359 81.7333 482.559 83.2C487.893 84.5333 493.226 86.1333 498.559 88C503.893 89.8667 508.359 93.0667 511.959 97.6C515.693 102 517.559 107.6 517.559 114.4C517.559 124 513.826 131.533 506.359 137C499.026 142.467 489.759 145.2 478.559 145.2C468.693 145.2 460.226 143.133 453.159 139C446.093 134.867 440.959 129.133 437.759 121.8L456.359 111C459.826 120.6 467.226 125.4 478.559 125.4C489.893 125.4 495.559 121.667 495.559 114.2C495.559 111 493.693 108.4 489.959 106.4C486.359 104.4 481.893 102.733 476.559 101.4C471.359 99.9333 466.093 98.2667 460.759 96.4C455.426 94.5333 450.893 91.4667 447.159 87.2C443.559 82.8 441.759 77.2667 441.759 70.6C441.759 61.4 445.226 54 452.159 48.4C459.226 42.8 467.959 40 478.359 40C486.626 40 493.959 41.8667 500.359 45.6C506.893 49.2 511.893 54.2667 515.359 60.8L497.159 71C493.693 63.4 487.426 59.6 478.359 59.6C474.226 59.6 470.759 60.5333 467.959 62.4C465.159 64.1333 463.759 66.7333 463.759 70.2Z" fill="url(#paint4_linear_2_18)"/>
<path d="M56.6 40C70.3333 40 82.0667 45.1333 91.8 55.4C101.533 65.5333 106.4 77.9333 106.4 92.6C106.4 107.4 101.533 119.867 91.8 130C82.0667 140.133 70.3333 145.2 56.6 145.2C41.4 145.2 29.7333 139.6 21.6 128.4V182.6H0V42.6H21.6V57C29.7333 45.6667 41.4 40 56.6 40ZM30.6 115.6C36.6 121.6 44.1333 124.6 53.2 124.6C62.2667 124.6 69.8 121.6 75.8 115.6C81.8 109.467 84.8 101.8 84.8 92.6C84.8 83.4 81.8 75.8 75.8 69.8C69.8 63.6667 62.2667 60.6 53.2 60.6C44.1333 60.6 36.6 63.6667 30.6 69.8C24.6 75.8 21.6 83.4 21.6 92.6C21.6 101.8 24.6 109.467 30.6 115.6Z" fill="url(#paint5_linear_2_18)"/>
<defs>
<linearGradient id="paint0_linear_2_18" x1="258.78" y1="0" x2="258.78" y2="182.6" gradientUnits="userSpaceOnUse">
<stop offset="0.347853" stop-color="#CDCDCD"/>
<stop offset="1" stop-color="#FCFBFC"/>
</linearGradient>
<linearGradient id="paint1_linear_2_18" x1="258.78" y1="0" x2="258.78" y2="182.6" gradientUnits="userSpaceOnUse">
<stop offset="0.347853" stop-color="#CDCDCD"/>
<stop offset="1" stop-color="#FCFBFC"/>
</linearGradient>
<linearGradient id="paint2_linear_2_18" x1="258.78" y1="0" x2="258.78" y2="182.6" gradientUnits="userSpaceOnUse">
<stop offset="0.347853" stop-color="#CDCDCD"/>
<stop offset="1" stop-color="#FCFBFC"/>
</linearGradient>
<linearGradient id="paint3_linear_2_18" x1="258.78" y1="0" x2="258.78" y2="182.6" gradientUnits="userSpaceOnUse">
<stop offset="0.347853" stop-color="#CDCDCD"/>
<stop offset="1" stop-color="#FCFBFC"/>
</linearGradient>
<linearGradient id="paint4_linear_2_18" x1="258.78" y1="0" x2="258.78" y2="182.6" gradientUnits="userSpaceOnUse">
<stop offset="0.347853" stop-color="#CDCDCD"/>
<stop offset="1" stop-color="#FCFBFC"/>
</linearGradient>
<linearGradient id="paint5_linear_2_18" x1="48.3999" y1="-34.4" x2="48.3999" y2="210.6" gradientUnits="userSpaceOnUse">
<stop offset="0.145833" stop-color="#B78AFF"/>
<stop offset="1" stop-color="#3D0B8B"/>
</linearGradient>
</defs>
</svg>
